<?xml version="1.0" standalone="no"?>
<!DOCTYPE svg PUBLIC "-//W3C//DTD SVG 20010904//EN"
 "http://www.w3.org/TR/2001/REC-SVG-20010904/DTD/svg10.dtd">
<svg version="1.0" xmlns="http://www.w3.org/2000/svg"
 width="300.000000pt" height="300.000000pt" viewBox="0 0 300.000000 300.000000"
 preserveAspectRatio="xMidYMid meet">
<metadata>
Created by potrace 1.10, written by Peter Selinger 2001-2011
</metadata>
<g transform="translate(0.000000,300.000000) scale(0.100000,-0.100000)"
fill="#000000" stroke="none">
<path d="M1350 2288 c0 -4 -9 -5 -20 -3 -11 2 -22 0 -25 -6 -4 -5 -17 -6 -31
-3 -17 4 -26 1 -30 -10 -4 -9 -14 -16 -23 -15 -30 3 -42 -1 -36 -11 3 -5 -1
-10 -9 -10 -22 0 -126 -51 -126 -61 0 -5 -6 -9 -13 -9 -27 0 -245 -240 -220
-240 5 0 4 -4 -2 -8 -15 -11 -45 -80 -45 -103 0 -11 -4 -17 -10 -14 -11 7 -13
-5 -10 -42 1 -13 -4 -23 -12 -23 -9 0 -14 -15 -15 -47 -2 -70 -7 -103 -16
-103 -4 0 -3 -9 3 -19 12 -23 14 -84 2 -77 -4 2 -9 -32 -10 -77 -1 -56 2 -83
11 -89 9 -6 9 -8 0 -8 -7 0 -13 -12 -13 -26 0 -17 4 -23 13 -18 10 6 10 4 0
-7 -15 -16 -17 -33 -3 -24 6 3 10 -1 10 -10 0 -9 -4 -13 -10 -10 -5 3 -10 -1
-10 -10 0 -9 5 -13 10 -10 6 4 10 -5 10 -20 0 -15 -4 -24 -10 -20 -7 4 -7 -3
0 -20 12 -31 13 -85 2 -85 -14 0 -14 -120 0 -138 9 -12 10 -14 1 -8 -9 5 -13
0 -13 -14 0 -12 4 -18 10 -15 14 9 13 -8 -2 -23 -9 -9 -9 -15 0 -24 7 -7 12
-17 12 -23 0 -5 -5 -3 -10 5 -8 11 -10 6 -8 -22 1 -20 6 -34 10 -32 4 3 8 -4
8 -16 0 -32 52 -48 158 -51 51 -1 95 1 99 5 3 3 18 6 32 6 21 0 90 63 340 310
279 275 341 330 341 303 0 -5 18 -22 39 -40 42 -35 75 -35 84 -1 3 11 10 17
15 14 6 -4 9 10 6 34 -2 22 1 52 8 67 6 16 12 50 14 77 2 27 7 52 12 55 4 3 9
28 9 55 1 27 7 52 13 56 14 9 4 75 -14 89 -7 6 -54 8 -121 4 -67 -4 -102 -9
-90 -14 23 -9 -27 -13 -104 -10 -24 2 -47 -2 -50 -7 -3 -5 -27 -12 -54 -15
-58 -7 -63 -10 -69 -42 -4 -17 -1 -25 8 -25 8 0 14 -6 14 -14 0 -7 11 -21 25
-30 14 -9 25 -23 25 -31 0 -16 -444 -465 -460 -465 -7 0 -10 94 -10 283 0 186
4 277 10 267 7 -11 10 -7 10 18 0 46 0 46 16 55 8 4 14 17 14 27 0 11 5 20 10
20 6 0 10 6 10 13 0 19 67 97 130 152 14 11 162 87 168 86 15 -5 32 1 27 9 -4
6 37 10 117 10 74 0 118 -4 109 -9 -10 -6 -5 -11 18 -16 18 -4 35 -5 38 -2 2
3 14 -4 25 -15 16 -16 22 -18 29 -7 7 11 9 10 9 -3 0 -10 7 -18 15 -18 8 0 15
-4 15 -10 0 -5 5 -10 11 -10 7 0 33 -17 58 -37 25 -21 49 -37 54 -35 5 1 6 -2
3 -6 -3 -5 3 -17 14 -27 11 -10 20 -24 20 -32 0 -7 3 -13 8 -13 8 0 32 -49 32
-67 0 -7 5 -13 10 -13 6 0 10 -13 10 -28 0 -15 5 -33 11 -39 7 -7 12 -148 14
-439 1 -236 6 -439 10 -451 10 -31 46 -39 155 -33 94 5 95 5 109 35 12 25 14
105 13 465 -1 239 -2 437 -3 440 0 3 -4 -4 -9 -15 -6 -15 -9 -7 -10 30 -1 44
-36 195 -40 170 -1 -5 -8 11 -16 38 -8 26 -19 47 -24 47 -6 0 -10 5 -10 11 0
32 -172 221 -228 250 -15 8 -29 16 -32 19 -10 10 -81 40 -95 40 -8 0 -18 7
-23 17 -6 9 -16 14 -25 10 -9 -3 -17 -1 -20 6 -2 6 -15 12 -28 12 -14 1 -30 5
-37 9 -7 4 -16 4 -22 1 -5 -3 -10 -2 -10 2 0 5 -70 8 -155 8 -85 0 -155 -3
-155 -7z m304 -29 c70 -13 179 -56 252 -101 114 -68 240 -217 292 -342 56
-138 55 -127 59 -628 l4 -468 -110 0 -110 0 -3 443 c-4 425 -5 445 -26 508
-88 265 -378 424 -646 354 -198 -52 -360 -220 -395 -410 -6 -34 -11 -182 -11
-350 l0 -290 278 278 279 278 -59 57 -60 58 232 27 c128 16 234 26 237 24 2
-3 -12 -90 -31 -194 -20 -104 -36 -201 -36 -216 0 -15 -3 -27 -6 -27 -3 0 -32
27 -63 60 l-56 59 -335 -329 -335 -330 -133 0 -133 0 3 473 4 472 26 80 c48
141 151 288 261 371 80 60 205 121 287 138 78 17 255 20 334 5z"/>
</g>
</svg>
